<?xml version="1.0" encoding="UTF-8"?>
<svg width="80px" height="80px" viewBox="0 0 80 80" version="1.1" xmlns="http://www.w3.org/2000/svg" xmlns:xlink="http://www.w3.org/1999/xlink">
    <!-- Generator: Sketch 61.2 (89653) - https://sketch.com -->
    <title>icn_hands_on</title>
    <desc>Created with Sketch.</desc>
    <defs>
        <polygon id="path-1" points="0 0 41 0 41 26 0 26"></polygon>
    </defs>
    <g id="entregables" stroke="none" stroke-width="1" fill="none" fill-rule="evenodd">
        <g id="02-home_IT_summit_mensaje_form" transform="translate(-721.000000, -325.000000)">
            <g id="icn_hands_on" transform="translate(721.000000, 325.000000)">
                <circle id="Oval" fill="#F78600" cx="40" cy="40" r="40"></circle>
                <g id="Group-3" transform="translate(20.000000, 27.000000)">
                    <mask id="mask-2" fill="white">
                        <use xlink:href="#path-1"></use>
                    </mask>
                    <g id="Clip-2"></g>
                    <path d="M28.2031013,2.32097123 C27.196588,2.33167382 26.3891904,3.17089803 26.3996701,4.19558615 C26.4060491,4.76866964 26.6721441,5.30697864 27.1209515,5.6533325 L36.2479168,13.0139315 L27.1209515,20.3601571 C26.2976063,20.9499324 26.1003133,22.1072272 26.6794343,22.9445967 C27.259011,23.78243 28.3962935,23.9836583 29.219183,23.3938831 C29.2720375,23.3563266 29.3221581,23.3155246 29.3709118,23.2728679 L40.3058647,14.4628684 C41.0964036,13.8285818 41.2317292,12.6624774 40.608411,11.8580277 C40.5195608,11.7439674 40.4184082,11.6410349 40.3058647,11.5506213 L29.3709118,2.74108541 C29.0414826,2.46659882 28.6286709,2.31822769 28.2031013,2.32097123 M12.7541029,2.32086182 C12.3431138,2.3284282 11.9467052,2.47633567 11.6291227,2.74108541 L0.693714201,11.5506213 C-0.0963690651,12.1853715 -0.231694746,13.3519395 0.39162354,14.1559256 C0.480018093,14.2699859 0.581626263,14.373382 0.693714201,14.4628684 L11.6291227,23.2728679 C12.3868554,23.9474929 13.5382628,23.869598 14.2012219,23.0989955 C14.8641811,22.3274656 14.7876332,21.1557973 14.0299005,20.4811723 C13.9820581,20.438052 13.9314819,20.3977136 13.879083,20.3601571 L4.75166205,13.0143952 L13.879083,5.6533325 C14.681013,5.03481035 14.8377538,3.8710243 14.2299274,3.05498308 C13.8799943,2.58575938 13.3323126,2.31359109 12.7541029,2.32086182 M23.3760297,0.00271073805 C22.5763779,0.0411945 21.8951931,0.605004795 21.6960776,1.39369008 L15.7727313,23.6493596 C15.5075476,24.6415916 16.0825678,25.664425 17.0571861,25.934275 C18.0318044,26.204125 19.0369507,25.6185227 19.3021344,24.6267544 C19.30259,24.6248998 19.3030457,24.6225815 19.3039569,24.6202632 L25.2273032,2.36459367 C25.5038779,1.37978029 24.9434382,0.352773873 23.9756546,0.0713323858 C23.7806398,0.0147658924 23.5783347,-0.00841709672 23.3760297,0.00271073805" id="Fill-1" fill="#FFFFFF" mask="url(#mask-2)"></path>
                </g>
            </g>
        </g>
    </g>
</svg>