<?xml version="1.0" encoding="UTF-8"?>
<svg width="90px" height="90px" viewBox="0 0 90 90" version="1.1" xmlns="http://www.w3.org/2000/svg" xmlns:xlink="http://www.w3.org/1999/xlink">
    <!-- Generator: Sketch 61.2 (89653) - https://sketch.com -->
    <title>icn_charlas</title>
    <desc>Created with Sketch.</desc>
    <defs>
        <polygon id="path-1" points="0.0772439024 0.135079432 9.96578049 0.135079432 9.96578049 14 0.0772439024 14"></polygon>
        <polygon id="path-3" points="0.207494669 0.0014516129 10.8046447 0.0014516129 10.8046447 14.7935806 0.207494669 14.7935806"></polygon>
        <polygon id="path-5" points="0 0.165166667 15.9495285 0.165166667 15.9495285 9.8182619 0 9.8182619"></polygon>
    </defs>
    <g id="entregables" stroke="none" stroke-width="1" fill="none" fill-rule="evenodd">
        <g id="02-home_IT_summit_mensaje_form" transform="translate(-1028.000000, -432.000000)">
            <g id="icn_charlas" transform="translate(1028.000000, 432.000000)">
                <circle id="Oval" fill="#008EFF" cx="45" cy="45" r="45"></circle>
                <g id="Group-16" transform="translate(21.000000, 22.000000)">
                    <path d="M18.3655774,23 C18.3655774,19.8933578 20.8932131,17.365884 23.9997634,17.365884 C27.1063138,17.365884 29.6339494,19.8933578 29.6339494,23 C29.6339494,26.1068788 27.1063138,28.6343526 23.9997634,28.6343526 C20.8932131,28.6343526 18.3655774,26.1068788 18.3655774,23 M32,23 C32,18.5885728 28.4110602,15 24,15 C19.5887032,15 16,18.5888094 16,23 C16,27.4111906 19.5887032,31 24,31 C28.4110602,31 32,27.4111906 32,23" id="Fill-1" fill="#FFFFFF"></path>
                    <g id="Group-5" transform="translate(23.000000, 32.000000)">
                        <mask id="mask-2" fill="white">
                            <use xlink:href="#path-1"></use>
                        </mask>
                        <g id="Clip-4"></g>
                        <path d="M5.02139024,11.5865448 C3.63992683,11.5865448 2.51626829,10.474269 2.51626829,9.10709655 C2.51626829,8.03585517 3.2074878,7.12392414 4.17114634,6.77826897 C4.20529268,6.7732 4.23943902,6.76813103 4.27407317,6.75968276 C4.34285366,6.74302759 4.4067561,6.71792414 4.46968293,6.69088966 C4.64773171,6.65106207 4.83187805,6.62813103 5.02163415,6.62813103 C6.40309756,6.62813103 7.527,7.73992414 7.527,9.10733793 C7.5267561,10.4740276 6.40285366,11.5865448 5.02139024,11.5865448 M5.02139024,4.21409655 C4.97968293,4.21409655 4.93919512,4.21916552 4.89773171,4.21988966 L4.11017073,1.05395862 C3.94919512,0.40682069 3.28870732,0.00975172414 2.63431707,0.170993103 C1.98017073,0.330062069 1.58090244,0.983958621 1.74212195,1.63133793 L2.54943902,4.87595862 C1.07407317,5.72368276 0.0772439024,7.30037241 0.0772439024,9.10685517 C0.0772439024,11.8049931 2.29529268,14.0000966 5.02139024,14.0000966 C7.74821951,14.0000966 9.96578049,11.8047517 9.96578049,9.10685517 C9.96578049,6.4092 7.74797561,4.21409655 5.02139024,4.21409655" id="Fill-3" fill="#FFFFFF" mask="url(#mask-2)"></path>
                    </g>
                    <path d="M43.1456357,27.5334221 C41.7893925,27.5334221 40.6862476,26.3970697 40.6862476,25 C40.6862476,23.603177 41.7893925,22.4665779 43.1456357,22.4665779 C44.501879,22.4665779 45.6052633,23.6029303 45.6052633,25 C45.6052633,26.396823 44.501879,27.5334221 43.1456357,27.5334221 M43.1456357,20 C41.0482956,20 39.2627189,21.379557 38.5857946,23.3020078 L35.3168269,22.9645799 C34.6590585,22.8977357 34.0721672,23.3910513 34.0060791,24.0688669 C33.939991,24.7466825 34.4203271,25.350994 35.0778561,25.4188249 L38.3532889,25.7569927 C38.7093506,28.1552464 40.7195311,30 43.1458752,30 C45.8226836,30 48,27.7568941 48,25 C47.9997606,22.2428593 45.8224442,20 43.1456357,20" id="Fill-6" fill="#FFFFFF"></path>
                    <g id="Group-10" transform="translate(29.000000, 0.000000)">
                        <mask id="mask-4" fill="white">
                            <use xlink:href="#path-3"></use>
                        </mask>
                        <g id="Clip-9"></g>
                        <path d="M6.06036809,2.42075806 C7.38598511,2.42075806 8.46421915,3.53559677 8.46421915,4.90567742 C8.46421915,6.276 7.38598511,7.39083871 6.06036809,7.39083871 C4.73475106,7.39083871 3.65628298,6.276 3.65628298,4.90567742 C3.65628298,3.53559677 4.73475106,2.42075806 6.06036809,2.42075806 M0.776155319,14.6213226 C0.964559574,14.7379355 1.17145319,14.7935806 1.37624043,14.7935806 C1.77411277,14.7935806 2.16192128,14.5838226 2.38121915,14.2054355 L5.00272979,9.68317742 C5.34349574,9.76374194 5.69619787,9.81019355 6.06036809,9.81019355 C8.67672979,9.81019355 10.8046447,7.61003226 10.8046447,4.90567742 C10.8046447,2.20132258 8.67649574,0.00140322581 6.06036809,0.00140322581 C3.44400638,0.00140322581 1.31585745,2.20156452 1.31585745,4.90567742 C1.31585745,6.36430645 1.9381766,7.67220968 2.91928298,8.57124194 L0.374070213,12.9616452 C0.0419638298,13.5350323 0.221942553,14.2780161 0.776155319,14.6213226" id="Fill-8" fill="#FFFFFF" mask="url(#mask-4)"></path>
                    </g>
                    <path d="M10.253537,10.5313513 C10.253537,9.26522857 11.2919669,8.23538616 12.5683703,8.23538616 C13.8447737,8.23538616 14.8834289,9.26522857 14.8834289,10.5313513 C14.8834289,11.797474 13.844999,12.82754 12.5685956,12.82754 C11.2921923,12.82754 10.253537,11.797474 10.253537,10.5313513 M17.7149982,15.6251257 C18.1287476,15.1639656 18.0870571,14.45736 17.6221524,14.0471666 L16.4088481,12.9764167 C16.8674429,12.2702582 17.1367406,11.4319884 17.1367406,10.5313513 C17.1367406,8.03263664 15.087374,6 12.5683703,6 C10.0493666,6 8,8.03286018 8,10.5313513 C8,13.0300659 10.0493666,15.0629261 12.5683703,15.0629261 C13.3600378,15.0629261 14.1048318,14.8617414 14.7547519,14.5087739 L16.124001,15.7172237 C16.3387631,15.9067844 16.6062579,16 16.872626,16 C17.1831634,15.9997765 17.4923487,15.8732536 17.7149982,15.6251257" id="Fill-11" fill="#FFFFFF"></path>
                    <g id="Group-15" transform="translate(0.000000, 24.000000)">
                        <mask id="mask-6" fill="white">
                            <use xlink:href="#path-5"></use>
                        </mask>
                        <g id="Clip-14"></g>
                        <path d="M4.91413333,7.43707143 C3.54104242,7.43707143 2.42395152,6.34016667 2.42395152,4.99135714 C2.42395152,3.64302381 3.54104242,2.54588095 4.91413333,2.54588095 C6.28722424,2.54588095 7.40431515,3.64278571 7.40431515,4.99135714 C7.40431515,6.34016667 6.28722424,7.43707143 4.91413333,7.43707143 M14.454497,1.62802381 L9.30734545,2.84040476 C8.50007273,1.25730952 6.8368,0.165166667 4.91437576,0.165166667 C2.20455758,0.165166667 -4.84848485e-05,2.33040476 -4.84848485e-05,4.99159524 C-4.84848485e-05,7.6532619 2.20455758,9.8182619 4.91437576,9.8182619 C7.56334545,9.8182619 9.7238303,7.74802381 9.81958788,5.1685 L15.0198303,3.9435 C15.6707394,3.78992857 16.0719515,3.14754762 15.9158303,2.5082619 C15.7597091,1.8687381 15.1063758,1.47492857 14.454497,1.62802381" id="Fill-13" fill="#FFFFFF" mask="url(#mask-6)"></path>
                    </g>
                </g>
            </g>
        </g>
    </g>
</svg>