<?xml version="1.0" encoding="UTF-8"?>
<svg width="30px" height="30px" viewBox="0 0 30 30" version="1.1" xmlns="http://www.w3.org/2000/svg" xmlns:xlink="http://www.w3.org/1999/xlink">
    <!-- Generator: Sketch 61.2 (89653) - https://sketch.com -->
    <title>icono_instagram</title>
    <desc>Created with Sketch.</desc>
    <defs>
        <polygon id="path-1" points="0 0 30 0 30 30 0 30"></polygon>
    </defs>
    <g id="fase1" stroke="none" stroke-width="1" fill="none" fill-rule="evenodd">
        <g id="00-UI-KIT" transform="translate(-93.000000, -1887.000000)">
            <g id="icono_instagram" transform="translate(93.000000, 1887.000000)">
                <mask id="mask-2" fill="white">
                    <use xlink:href="#path-1"></use>
                </mask>
                <g id="Clip-2"></g>
                <path d="M21.1294765,9.99562555 C21.1294765,10.616939 20.62571,11.1205656 20.004398,11.1205656 C19.383086,11.1205656 18.87939,10.616939 18.87939,9.99562555 C18.87939,9.37424153 19.383086,8.87061496 20.004398,8.87061496 C20.62571,8.87061496 21.1294765,9.37424153 21.1294765,9.99562555 M14.9999647,18.1249824 C13.2741764,18.1249824 11.8749897,16.7259335 11.8749897,15 C11.8749897,13.2741371 13.2741764,11.8750176 14.9999647,11.8750176 C16.7258941,11.8750176 18.1250103,13.2741371 18.1250103,15 C18.1250103,16.7259335 16.7258941,18.1249824 14.9999647,18.1249824 M14.9999647,10.1857731 C12.3412207,10.1857731 10.1858197,12.3411791 10.1858197,15 C10.1858197,17.6588209 12.3412207,19.8141563 14.9999647,19.8141563 C17.6588499,19.8141563 19.8141803,17.6588209 19.8141803,15 C19.8141803,12.3411791 17.6588499,10.1857731 14.9999647,10.1857731 M14.9999647,7.31415629 C17.5032044,7.31415629 17.7997493,7.32375187 18.7883028,7.36883696 C19.7023497,7.41053538 20.1987784,7.56328846 20.5290489,7.69162927 C20.9667048,7.8616685 21.2790542,8.06486891 21.6070668,8.3929529 C21.9351501,8.72096633 22.13835,9.0333164 22.3083183,9.47090283 C22.4367293,9.8012446 22.5894821,10.2976039 22.6311098,11.211653 C22.6762654,12.2002794 22.6858609,12.4967544 22.6858609,15 C22.6858609,17.5032456 22.6762654,17.7997206 22.6311098,18.788347 C22.5894821,19.7023961 22.4367293,20.1986848 22.3083183,20.5290972 C22.13835,20.9666836 21.9351501,21.2790337 21.6070668,21.6070471 C21.2790542,21.9352016 20.9667048,22.1383315 20.5290489,22.3083707 C20.1987784,22.4367115 19.7023497,22.5894646 18.7883028,22.631163 C17.799961,22.6763187 17.5034161,22.6857731 14.9999647,22.6857731 C12.4965839,22.6857731 12.2001802,22.6763187 11.2116972,22.631163 C10.2976503,22.5894646 9.80129211,22.4367115 9.47095111,22.3083707 C9.03329515,22.1383315 8.72101638,21.9352016 8.39293316,21.6070471 C8.06484994,21.2790337 7.86172057,20.9666836 7.69168174,20.5290972 C7.56334123,20.1986848 7.4105885,19.7023961 7.36881963,18.788347 C7.32373465,17.7997206 7.31420965,17.5032456 7.31420965,15 C7.31420965,12.4967544 7.32373465,12.2002794 7.36881963,11.211653 C7.4105885,10.2976039 7.56334123,9.8012446 7.69168174,9.47090283 C7.86172057,9.0333164 8.06484994,8.72096633 8.39293316,8.3929529 C8.72101638,8.06486891 9.03329515,7.8616685 9.47095111,7.69162927 C9.80129211,7.56328846 10.2976503,7.41053538 11.2116972,7.36883696 C12.2002507,7.32375187 12.496725,7.31415629 14.9999647,7.31415629 M14.9999647,5.62498236 C12.4539684,5.62498236 12.1347046,5.63577738 11.1347211,5.68142692 C10.1368542,5.72693534 9.45535834,5.88540344 8.85895244,6.1171789 C8.24250877,6.35678605 7.71969228,6.67732058 7.19849858,7.19851551 C6.67730487,7.71971044 6.3567711,8.24252815 6.11716451,8.85904383 C5.8853896,9.45531002 5.72699243,10.1368075 5.68141356,11.1346767 C5.63576413,12.1346626 5.62496913,12.4539271 5.62496913,15 C5.62496913,17.5460729 5.63576413,17.8653374 5.68141356,18.8653233 C5.72699243,19.8631219 5.8853896,20.54469 6.11716451,21.1410267 C6.3567711,21.7574718 6.67730487,22.2802896 7.19849858,22.801555 C7.71969228,23.32275 8.24250877,23.6433551 8.85895244,23.8828917 C9.45535834,24.114526 10.1368542,24.2730647 11.1347211,24.3185731 C12.1347046,24.3642226 12.4539684,24.3750176 14.9999647,24.3750176 C17.5461022,24.3750176 17.8653659,24.3642226 18.8653495,24.3185731 C19.8632163,24.2730647 20.5447122,24.114526 21.140977,23.8828917 C21.7574207,23.6433551 22.2803077,23.32275 22.8015014,22.801555 C23.3227657,22.2802896 23.6432995,21.7574718 23.8828355,21.1410267 C24.1146104,20.54469 24.2730781,19.8631219 24.3185864,18.8653233 C24.3642359,17.8653374 24.3750309,17.5460729 24.3750309,15 C24.3750309,12.4539271 24.3642359,12.1346626 24.3185864,11.1346767 C24.2730781,10.1368075 24.1146104,9.45531002 23.8828355,8.85904383 C23.6432995,8.24252815 23.3227657,7.71971044 22.8015014,7.19851551 C22.2803077,6.67732058 21.7574207,6.35678605 21.140977,6.1171789 C20.5447122,5.88540344 19.8632163,5.72693534 18.8653495,5.68142692 C17.8653659,5.63577738 17.5461022,5.62498236 14.9999647,5.62498236 M14.9999647,0 C23.278739,0 30,6.72127678 30,15 C30,23.2787232 23.278739,30 14.9999647,30 C6.72133152,30 0,23.2787232 0,15 C0,6.72127678 6.72133152,0 14.9999647,0" id="Fill-1" fill="#0091FF" mask="url(#mask-2)"></path>
            </g>
        </g>
    </g>
</svg>