<?xml version="1.0" encoding="UTF-8"?>
<svg width="30px" height="30px" viewBox="0 0 30 30" version="1.1" xmlns="http://www.w3.org/2000/svg" xmlns:xlink="http://www.w3.org/1999/xlink">
    <!-- Generator: Sketch 61.2 (89653) - https://sketch.com -->
    <title>icono_Twitter</title>
    <desc>Created with Sketch.</desc>
    <defs>
        <polygon id="path-1" points="0 1.20481928e-05 29.9881867 1.20481928e-05 29.9881867 29.9881928 0 29.9881928"></polygon>
    </defs>
    <g id="fase1" stroke="none" stroke-width="1" fill="none" fill-rule="evenodd">
        <g id="00-UI-KIT" transform="translate(-133.000000, -1887.000000)">
            <g id="icono_Twitter" transform="translate(133.000000, 1887.000000)">
                <mask id="mask-2" fill="white">
                    <use xlink:href="#path-1"></use>
                </mask>
                <g id="Clip-2"></g>
                <path d="M22.293488,11.250012 C22.3005964,11.411759 22.3039096,11.5745301 22.3039096,11.7377831 C22.3039096,16.7144699 18.516259,22.4528434 11.5888494,22.4528434 C9.46234337,22.4528434 7.48294578,21.8298313 5.81583735,20.7607952 C6.11059639,20.7957952 6.41053614,20.8136867 6.71421084,20.8136867 C8.47890964,20.8136867 10.1024036,20.2115181 11.3913193,19.2013373 C9.74360843,19.1711566 8.35294578,18.082 7.87342771,16.5859157 C8.10330723,16.630253 8.33921084,16.653747 8.58216265,16.653747 C8.92571687,16.653747 9.25848795,16.6075422 9.57445181,16.5218193 C7.85143976,16.1753133 6.55324699,14.653506 6.55324699,12.8291687 C6.55324699,12.8131446 6.55324699,12.7971205 6.55360843,12.7814578 C7.0615,13.063506 7.64240361,13.2330843 8.25945181,13.2528434 C7.24890964,12.5776627 6.5841506,11.4247711 6.5841506,10.1183855 C6.5841506,9.42754217 6.76969277,8.7806747 7.09390964,8.22471084 C8.95143976,10.5032651 11.7266807,12.0023614 14.8566807,12.1595904 C14.7922229,11.8834458 14.7590301,11.5961566 14.7590301,11.3014578 C14.7590301,9.22151807 16.4451145,7.53537349 18.524753,7.53537349 C19.6079458,7.53537349 20.5868012,7.99296386 21.2735482,8.72477108 C22.1316807,8.55561446 22.9373434,8.24224096 23.6650542,7.81037349 C23.3836687,8.69049398 22.7871024,9.42826506 22.0090904,9.89404819 C22.7710783,9.80350602 23.4973434,9.60115663 24.1722229,9.30121687 C23.6677048,10.0565181 23.0290904,10.7201325 22.293488,11.250012 M14.9940904,1.20481928e-05 C6.71306627,1.20481928e-05 -6.02409638e-06,6.71308434 -6.02409638e-06,14.9941084 C-6.02409638e-06,23.2751325 6.71306627,29.9882048 14.9940904,29.9882048 C23.2751145,29.9882048 29.9881867,23.2751325 29.9881867,14.9941084 C29.9881867,6.71308434 23.2751145,1.20481928e-05 14.9940904,1.20481928e-05" id="Fill-1" fill="#008EFF" mask="url(#mask-2)"></path>
            </g>
        </g>
    </g>
</svg>