<?xml version="1.0" encoding="UTF-8"?>
<svg width="30px" height="30px" viewBox="0 0 30 30" version="1.1" xmlns="http://www.w3.org/2000/svg" xmlns:xlink="http://www.w3.org/1999/xlink">
    <!-- Generator: Sketch 61.2 (89653) - https://sketch.com -->
    <title>icono linkedin</title>
    <desc>Created with Sketch.</desc>
    <defs>
        <polygon id="path-1" points="0 2.81690141e-05 29.9434366 2.81690141e-05 29.9434366 29.9434507 0 29.9434507"></polygon>
    </defs>
    <g id="entregables" stroke="none" stroke-width="1" fill="none" fill-rule="evenodd">
        <g id="02-home_IT_summit_mensaje_form" transform="translate(-411.000000, -1388.000000)">
            <g id="icono-linkedin" transform="translate(411.000000, 1388.000000)">
                <mask id="mask-2" fill="white">
                    <use xlink:href="#path-1"></use>
                </mask>
                <g id="Clip-2"></g>
                <path d="M8.37364789,6.05594366 C7.04371831,6.05594366 6.17484507,6.93030986 6.17484507,8.07622535 C6.17484507,9.19812676 7.01730986,10.096507 8.32216901,10.096507 L8.34723944,10.096507 C9.70259155,10.096507 10.5462535,9.19812676 10.5462535,8.07622535 C10.5211127,6.93030986 9.70266197,6.05594366 8.37364789,6.05594366 L8.37364789,6.05594366 Z M24.3046338,23.3857324 L24.3046338,16.6809437 C24.3046338,13.0894648 22.387169,11.418831 19.8301268,11.418831 C17.7683662,11.418831 16.8447746,12.5527042 16.327662,13.3491831 L16.327662,11.6937606 L12.4416056,11.6937606 C12.4931549,12.7907324 12.4416056,23.3857324 12.4416056,23.3857324 L16.3275915,23.3857324 L16.3275915,16.8561549 C16.3275915,16.5066479 16.3527324,16.1572817 16.4556901,15.907493 C16.7361831,15.2094648 17.3760423,14.4863662 18.4497746,14.4863662 C19.855338,14.4863662 20.4184366,15.5589718 20.4184366,17.1300282 L20.4184366,23.3857324 L24.3046338,23.3857324 Z M6.40385915,23.3858028 L10.2909014,23.3858028 L10.2909014,11.6937606 L6.40385915,11.6937606 L6.40385915,23.3858028 Z M14.9716761,2.81690141e-05 C23.2348451,2.81690141e-05 29.9434366,6.70861972 29.9434366,14.9717183 C29.9434366,23.2348169 23.2348451,29.9434789 14.9716761,29.9434789 C6.70857746,29.9434789 -1.4084507e-05,23.2348169 -1.4084507e-05,14.9717183 C-1.4084507e-05,6.70861972 6.70857746,2.81690141e-05 14.9716761,2.81690141e-05 L14.9716761,2.81690141e-05 Z" id="Fill-1" fill="#008EFF" mask="url(#mask-2)"></path>
            </g>
        </g>
    </g>
</svg>