<?xml version="1.0" encoding="UTF-8"?>
<svg width="30px" height="30px" viewBox="0 0 30 30" version="1.1" xmlns="http://www.w3.org/2000/svg" xmlns:xlink="http://www.w3.org/1999/xlink">
    <!-- Generator: Sketch 61.2 (89653) - https://sketch.com -->
    <title>icono_tictoc</title>
    <desc>Created with Sketch.</desc>
    <g id="fase1" stroke="none" stroke-width="1" fill="none" fill-rule="evenodd">
        <g id="00-UI-KIT" transform="translate(-173.000000, -1887.000000)" fill="#008EFF">
            <path d="M196,1900.75694 C194.298425,1900.80822 192.754175,1900.33996 191.360837,1899.37309 L191.360837,1905.99652 C191.360837,1909.30987 188.591482,1912 185.180418,1912 C181.769355,1912 179,1909.30987 179,1905.99652 C179,1902.6831 181.769355,1899.99303 185.180418,1899.99303 C185.46121,1899.99303 185.737725,1900.01119 186.008537,1900.04661 L186.008537,1903.31592 C185.746493,1903.23806 185.468482,1903.19624 185.180418,1903.19624 C183.618277,1903.19624 182.349972,1904.42821 182.349972,1905.94566 C182.349972,1907.4631 183.618277,1908.69514 185.180418,1908.69514 C186.725095,1908.69514 187.982422,1907.49052 188.010366,1905.99652 L188.011435,1905.99652 L188.011435,1897.51213 L188.007087,1897.51213 L188.007087,1893 L191.215486,1893 C191.222686,1893.02449 191.229743,1893.02623 191.236373,1893 L191.245925,1893.07299 L191.255976,1893.14479 L191.266455,1893.21563 L191.277505,1893.28555 L191.288981,1893.35457 L191.300957,1893.42297 L191.313503,1893.49081 L191.326549,1893.55816 L191.340164,1893.62503 L191.35435,1893.69168 L191.360837,1893.72098 C191.929335,1896.27759 193.654934,1897.41527 196,1897.51303 L196,1900.75694 Z M188,1887 C179.715671,1887 173,1893.71573 173,1902 C173,1910.28434 179.715671,1917 188,1917 C196.284258,1917 203,1910.28434 203,1902 C203,1893.71573 196.284258,1887 188,1887 L188,1887 Z" id="icono_tictoc"></path>
        </g>
    </g>
</svg>