<?xml version="1.0" encoding="UTF-8"?>
<svg width="21px" height="25px" viewBox="0 0 21 25" version="1.1" xmlns="http://www.w3.org/2000/svg" xmlns:xlink="http://www.w3.org/1999/xlink">
    <!-- Generator: Sketch 61.2 (89653) - https://sketch.com -->
    <title>levantar la mano_normal</title>
    <desc>Created with Sketch.</desc>
    <defs>
        <polygon id="path-1" points="0 0 20.2380952 0 20.2380952 25 0 25"></polygon>
    </defs>
    <g id="entregables-copy-2" stroke="none" stroke-width="1" fill="none" fill-rule="evenodd">
        <g id="00-UI-KIT" transform="translate(-98.000000, -2274.000000)">
            <g id="button_normal" transform="translate(98.000000, 2274.000000)">
                <g id="levantar-la-mano_normal" transform="translate(0.000000, 0.000000)">
                    <mask id="mask-2" fill="white">
                        <use xlink:href="#path-1"></use>
                    </mask>
                    <g id="Clip-2"></g>
                    <path d="M18.80009,4.27862012 C18.022596,4.27862012 17.3907787,4.91032193 17.3907787,5.68945763 L17.3648438,12.0147585 C17.3648438,12.0147585 17.3676029,12.4559558 16.9435403,12.4559558 C16.510373,12.4559558 16.5225127,12.0147585 16.5225127,12.0147585 L16.5225127,2.89042228 C16.5225127,2.11156267 15.8978688,1.50719412 15.1200989,1.50719412 C14.3415013,1.50719412 13.7872127,2.11156267 13.7872127,2.89042228 L13.7872127,12.0142063 C13.7872127,12.0142063 13.7394815,12.4600972 13.3214888,12.4600972 C12.9062551,12.4600972 12.8750781,12.0142063 12.8750781,12.0142063 L12.8750781,1.36969958 C12.8750781,0.59139216 12.2885088,0 11.510463,0 C10.7321413,0 10.1406058,0.59139216 10.1406058,1.36969958 L10.1406058,12.0144824 C10.1406058,12.0144824 10.1193613,12.4413228 9.67129519,12.4413228 C9.23067847,12.4413228 9.22874715,12.0144824 9.22874715,12.0144824 L9.22874715,4.10661391 C9.22874715,3.3277543 8.61927794,2.83962109 7.84123214,2.83962109 C7.06263453,2.83962109 6.49317122,3.32803039 6.49317122,4.10661391 L6.49317122,15.6636094 C6.49317122,15.6636094 6.41702206,16.1771432 5.68063757,15.3289842 C3.79291085,13.1553005 2.80848977,12.7232142 2.80848977,12.7232142 C2.80848977,12.7232142 1.01705311,11.844961 0.223556756,13.4305657 C-0.351424609,14.5807709 0.257768699,14.6423398 1.19776942,16.0545578 C2.02934036,17.3047089 4.66007324,20.5932579 4.66007324,20.5932579 C4.66007324,20.5932579 7.78025763,24.9977766 11.9913615,24.9977766 C11.9913615,24.9977766 20.2380952,25.3500719 20.2380952,17.1854365 L20.2094014,5.68945763 C20.2085736,4.91004583 19.5784117,4.27862012 18.80009,4.27862012" id="Fill-1" fill="#00BFA5" mask="url(#mask-2)"></path>
                </g>
            </g>
        </g>
    </g>
</svg>