<?xml version="1.0" encoding="UTF-8"?>
<svg width="30px" height="30px" viewBox="0 0 30 30" version="1.1" xmlns="http://www.w3.org/2000/svg" xmlns:xlink="http://www.w3.org/1999/xlink">
    <!-- Generator: Sketch 61.2 (89653) - https://sketch.com -->
    <title>instagram_normal</title>
    <desc>Created with Sketch.</desc>
    <defs>
        <polygon id="path-1" points="2.85714286e-05 0.11214456 29.8857143 0.11214456 29.8857143 29.7169811 2.85714286e-05 29.7169811"></polygon>
    </defs>
    <g id="entregables-copy-2" stroke="none" stroke-width="1" fill="none" fill-rule="evenodd">
        <g id="00-UI-KIT" transform="translate(-98.000000, -2619.000000)">
            <g id="button_normal" transform="translate(98.000000, 2274.000000)">
                <g id="instagram_normal" transform="translate(0.000000, 345.000000)">
                    <path d="M15.4165264,12.1621622 C13.8065186,12.1621622 12.5,13.4278928 12.5,15.0001341 C12.5,16.5723754 13.8065186,17.8378378 15.4165264,17.8378378 C17.0268148,17.8378378 18.3333333,16.5723754 18.3333333,15.0001341 C18.3333333,13.4278928 17.0268148,12.1621622 15.4165264,12.1621622" id="Fill-1" fill="#EE7036"></path>
                    <g id="Group-5">
                        <mask id="mask-2" fill="white">
                            <use xlink:href="#path-1"></use>
                        </mask>
                        <g id="Clip-4"></g>
                        <path d="M23.8677429,18.6212547 C23.8268857,19.5753113 23.6751714,20.2344623 23.4531714,20.801066 C23.2254571,21.3968208 22.9220286,21.8938019 22.4260286,22.3970094 C21.9357429,22.899934 21.4394571,23.2064434 20.8497429,23.4379528 C20.2837429,23.6575755 19.6300286,23.8078585 18.6843143,23.8539906 C17.7388857,23.9001226 17.4294571,23.9117264 15.0128857,23.9117264 C12.5963143,23.9117264 12.2928857,23.9001226 11.3414571,23.8539906 C10.3957429,23.8135189 9.74202857,23.6632358 9.17574286,23.4379528 C8.59202857,23.2064434 8.09602857,22.899934 7.59974286,22.3970094 C7.10374286,21.8938019 6.80031429,21.3908774 6.5726,20.801066 C6.3566,20.2288019 6.20488571,19.5753113 6.15802857,18.6212547 C6.11717143,17.6674811 6.10574286,17.3609717 6.10574286,14.921066 C6.10574286,12.4808774 6.11145714,12.1746509 6.15802857,11.2205943 C6.19888571,10.2662547 6.3506,9.60710377 6.5726,9.0405 C6.80031429,8.4450283 7.10374286,7.94776415 7.59974286,7.44483962 C8.09002857,6.94163208 8.58631429,6.63512264 9.17574286,6.40389623 C9.74202857,6.18427358 10.3957429,6.03399057 11.3414571,5.98757547 C12.2868857,5.9414434 12.5906,5.92983962 15.0128857,5.92983962 C17.4294571,5.92983962 17.7388857,5.9414434 18.6843143,5.98757547 C19.6300286,6.02833019 20.2837429,6.17833019 20.8497429,6.40389623 C21.4334571,6.63512264 21.9297429,6.94163208 22.4260286,7.44483962 C22.9220286,7.94776415 23.2254571,8.45068868 23.4531714,9.0405 C23.6691714,9.61304717 23.8208857,10.2662547 23.8677429,11.2205943 C23.9086,12.1746509 23.9203143,12.4808774 23.9203143,14.921066 C23.9203143,17.3609717 23.9143143,17.6674811 23.8677429,18.6212547 M15.7248857,0.1305 C7.51802857,-0.279877358 0.227742857,6.24229245 2.85714286e-05,14.5392736 L2.85714286e-05,15.3371038 C0.210028571,22.9924811 6.4326,29.1388019 13.8397429,29.7170094 L16.1160286,29.7170094 C23.5643143,29.1331415 29.6814571,22.9347453 29.8857429,15.3255 L29.8857429,14.5392736 C29.6814571,6.79729245 23.3540286,0.51795283 15.7248857,0.1305" id="Fill-3" fill="#EE7036" mask="url(#mask-2)"></path>
                    </g>
                    <path d="M19.878362,10.9084872 C19.2736391,10.9084872 18.7828877,10.4312041 18.7828877,9.84224621 C18.7828877,9.25356895 19.2736391,8.77600521 19.878362,8.77600521 C20.4833779,8.77600521 20.9738364,9.25356895 20.9738364,9.84224621 C20.9738364,10.4312041 20.4833779,10.9084872 19.878362,10.9084872 M15.0001465,19.1746609 C12.4083931,19.1746609 10.3073911,17.1280393 10.3073911,14.6002064 C10.3073911,12.0720929 12.4022404,10.0257519 15.0001465,10.0257519 C17.5918999,10.0257519 19.6929019,12.0720929 19.6929019,14.6002064 C19.6929019,17.1280393 17.5918999,19.1746609 15.0001465,19.1746609 M22.1290798,9.33774587 C21.9611989,8.92527895 21.7578667,8.62701206 21.4405629,8.31752158 C21.1235522,8.0080311 20.8182608,7.81302123 20.3931383,7.6525239 C20.0699748,7.53215091 19.5912358,7.38315776 18.6993867,7.34864522 C17.7296033,7.3026285 17.4421841,7.2972973 15.0001465,7.2972973 C12.5581089,7.2972973 12.26483,7.30852089 11.3009063,7.34864522 C10.4152099,7.38315776 9.93031818,7.52625852 9.60715472,7.6525239 C9.18203215,7.81302123 8.87674082,8.0080311 8.55973006,8.31752158 C8.23627361,8.62701206 8.0388011,8.92527895 7.87121316,9.33774587 C7.73966248,9.65312873 7.58994668,10.1290089 7.55420239,10.9946283 C7.5061527,11.9346039 7.5,12.2154742 7.5,14.5945946 C7.5,16.9734344 7.5061527,17.2543047 7.55420239,18.1945609 C7.6019591,19.0655115 7.7455222,19.5357799 7.87121316,19.8508821 C8.0388011,20.2639102 8.24242631,20.5616159 8.55973006,20.871387 C8.87674082,21.1808775 9.18203215,21.3758874 9.60715472,21.5363847 C9.93031818,21.6567577 10.4090572,21.8057508 11.3009063,21.8402634 C12.2706897,21.8859995 12.5581089,21.8918919 15.0001465,21.8918919 C17.4421841,21.8918919 17.735463,21.8859995 18.6993867,21.8402634 C19.5850831,21.8057508 20.0699748,21.6623695 20.3931383,21.5363847 C20.8182608,21.3758874 21.1235522,21.1808775 21.4405629,20.871387 C21.7640194,20.5616159 21.9611989,20.2639102 22.1290798,19.8508821 C22.2606305,19.5357799 22.4103463,19.0598997 22.4463836,18.1945609 C22.4941403,17.2543047 22.5,16.9734344 22.5,14.5945946 C22.5,12.2154742 22.4941403,11.9346039 22.4463836,10.9946283 C22.3983339,10.1231165 22.2547708,9.65312873 22.1290798,9.33774587" id="Fill-6" fill="#EE7036"></path>
                </g>
            </g>
        </g>
    </g>
</svg>