<?xml version="1.0" encoding="UTF-8"?>
<svg width="23px" height="21px" viewBox="0 0 23 21" version="1.1" xmlns="http://www.w3.org/2000/svg" xmlns:xlink="http://www.w3.org/1999/xlink">
    <!-- Generator: Sketch 61.2 (89653) - https://sketch.com -->
    <title>share_normal</title>
    <desc>Created with Sketch.</desc>
    <g id="entregables-copy-2" stroke="none" stroke-width="1" fill="none" fill-rule="evenodd">
        <g id="00-UI-KIT" transform="translate(-98.000000, -2447.000000)" fill="#00BFA5">
            <g id="button_normal" transform="translate(98.000000, 2274.000000)">
                <path d="M15.1451034,177.83 C15.0951379,177.573962 15.0689655,177.309442 15.0689655,177.038462 C15.0689655,174.809635 16.8459138,173 19.0344828,173 C21.2226552,173 23,174.809635 23,177.038462 C23,179.267288 21.2226552,181.076923 19.0344828,181.076923 C17.6762931,181.076923 16.4763276,180.379885 15.7617414,179.318173 L7.85489655,182.708462 C7.90486207,182.9645 7.93103448,183.229019 7.93103448,183.5 C7.93103448,183.770981 7.90486207,184.0355 7.85489655,184.291538 L15.7617414,187.682231 C16.4763276,186.620115 17.6762931,185.923077 19.0344828,185.923077 C21.2226552,185.923077 23,187.732712 23,189.961538 C23,192.190365 21.2226552,194 19.0344828,194 C16.8459138,194 15.0689655,192.190365 15.0689655,189.961538 C15.0689655,189.690558 15.0951379,189.426038 15.1451034,189.17 L7.23825862,185.779712 C6.52327586,186.841423 5.32331034,187.538462 3.96551724,187.538462 C1.77694828,187.538462 0,185.728827 0,183.5 C0,181.271173 1.77694828,179.461538 3.96551724,179.461538 C5.32331034,179.461538 6.52327586,180.158577 7.23825862,181.220288 L15.1451034,177.83 Z" id="share_normal"></path>
            </g>
        </g>
    </g>
</svg>