<?xml version="1.0" encoding="UTF-8"?>
<svg width="24px" height="24px" viewBox="0 0 24 24" version="1.1" xmlns="http://www.w3.org/2000/svg" xmlns:xlink="http://www.w3.org/1999/xlink">
    <!-- Generator: Sketch 61.2 (89653) - https://sketch.com -->
    <title>22) Icons/Filled/Star</title>
    <desc>Created with Sketch.</desc>
    <g id="22)-Icons/Filled/Star" stroke="none" stroke-width="1" fill="none" fill-rule="evenodd">
        <path d="M16.4454887,19.9958659 C16.3172764,19.9964076 16.1908103,19.964657 16.0767015,19.9032783 L11.9879743,17.6559244 L7.89924715,19.9032783 C7.6283757,20.0528183 7.3000445,20.0274106 7.05298381,19.8377907 C6.80592312,19.6481709 6.68323765,19.3274219 6.73676589,19.0110704 L7.5384771,14.2722678 L4.23542691,10.9054454 C4.02542365,10.6854245 3.94832162,10.361631 4.03499911,10.0637398 C4.12979676,9.75855579 4.38167742,9.5365517 4.68438519,9.49138002 L9.2541391,8.79276437 L11.2664342,4.47481464 C11.4003893,4.18443434 11.6806603,4 11.9879743,4 C12.2952883,4 12.5755593,4.18443434 12.7095144,4.47481464 L14.7458609,8.78434732 L19.3156148,9.48296297 C19.6183226,9.52813464 19.8702032,9.75013873 19.9650009,10.0553228 C20.0516784,10.353214 19.9745763,10.6770074 19.7645731,10.8970284 L16.4615229,14.2638508 L17.2632341,19.0026533 C17.3216732,19.3248558 17.1965178,19.6533533 16.9425496,19.8443589 C16.7973741,19.9511685 16.6225734,20.0044488 16.4454887,19.9958659 L16.4454887,19.9958659 Z" id="Shape" fill="#C7C7C7"></path>
    </g>
</svg>