<?xml version="1.0" encoding="UTF-8"?>
<svg width="30px" height="30px" viewBox="0 0 30 30" version="1.1" xmlns="http://www.w3.org/2000/svg" xmlns:xlink="http://www.w3.org/1999/xlink">
    <!-- Generator: Sketch 61.2 (89653) - https://sketch.com -->
    <title>whatsapp_normal</title>
    <desc>Created with Sketch.</desc>
    <g id="entregables-copy-2" stroke="none" stroke-width="1" fill="none" fill-rule="evenodd">
        <g id="00-UI-KIT" transform="translate(-98.000000, -2498.000000)">
            <g id="button_normal" transform="translate(98.000000, 2274.000000)">
                <g id="whatsapp_normal" transform="translate(0.000000, 224.000000)">
                    <path d="M15,0 C23.2844531,0 30,6.71578125 30,15 C30,23.2844531 23.2844531,30 15,30 C6.71578125,30 0,23.2844531 0,15 C0,6.71578125 6.71578125,0 15,0" id="Fill-1" fill="#25D366"></path>
                    <path d="M19.4183548,16.9140326 C19.1782477,16.7945556 17.9986854,16.2175628 17.7785872,16.1371916 C17.558489,16.0575402 17.3991408,16.0179544 17.2390694,16.2569086 C17.078998,16.4958628 16.6192749,17.0337497 16.4789713,17.1930525 C16.3391499,17.3523552 16.1990875,17.372508 15.9589803,17.252791 C15.7191143,17.133074 14.9462394,16.8811645 14.0304092,16.0676166 C13.3168379,15.4349638 12.8351773,14.6521249 12.6953559,14.4134107 C12.5555345,14.1744565 12.6804095,14.0453828 12.8007041,13.9261456 C12.9087041,13.819384 13.0408112,13.6473657 13.1606237,13.5077359 C13.2804362,13.3683459 13.320454,13.2687817 13.4004897,13.1097188 C13.4805254,12.950416 13.4407486,12.8107862 13.3804808,12.6913091 C13.3202129,12.5715921 12.8404809,11.3962541 12.6408738,10.9181059 C12.445847,10.4524331 12.2481685,10.5157703 12.1011149,10.508333 C11.9608114,10.5016154 11.8009811,10.499936 11.6411507,10.499936 C11.4813204,10.499936 11.2212044,10.5596746 11.0013473,10.7986288 C10.7817312,11.0375829 10.1616956,11.6152955 10.1616956,12.7908733 C10.1616956,13.9659713 11.0213562,15.1017235 11.1414097,15.2607863 C11.2614633,15.4198492 12.8332487,17.8321829 15.2401055,18.8666914 C15.8124089,19.1121233 16.2593553,19.2591905 16.6079445,19.3695508 C17.1826587,19.5516455 17.7057836,19.5257348 18.1194621,19.4643168 C18.5801495,19.3959414 19.5388905,18.8868442 19.7392208,18.3288046 C19.939069,17.7712448 19.939069,17.2933364 19.87856,17.1935323 C19.8180511,17.0934882 19.6579797,17.0337497 19.4183548,16.9140326 M15.0404984,22.8629363 L15.0373644,22.8629363 C13.6046772,22.8624565 12.2001953,22.4793141 10.9745883,21.7559739 L10.683133,21.5837157 L7.66250854,22.3720726 L8.46841019,19.4412851 L8.27868701,19.1399533 C7.47953535,17.8758473 7.05741936,16.414532 7.05838199,14.9131512 C7.05983007,10.5337639 10.6404634,6.97104329 15.0429091,6.97104329 C17.1749444,6.97152312 19.1784887,7.79874605 20.685667,9.30060672 C22.1926043,10.8017476 23.0218899,12.7971111 23.0214079,14.9196289 C23.0197202,19.299496 19.439328,22.8629363 15.0404984,22.8629363 M21.8334079,8.1600563 C20.0200689,6.35326514 17.609114,5.35810251 15.0402573,5.35714286 C9.74777604,5.35714286 5.4393482,9.64368351 5.4376607,14.9131512 C5.43669642,16.5978262 5.87906241,18.2417159 6.7191962,19.6903157 L5.35714286,24.6428571 L10.4473652,23.3142143 C11.8501596,24.0749811 13.4291772,24.4763569 15.0364001,24.4768368 L15.0404984,24.4768368 C20.3329796,24.4768368 24.6406842,20.1893365 24.642855,14.9203486 C24.6440592,12.3671855 23.6457826,9.96636763 21.8334079,8.1600563" id="Fill-3" fill="#FFFFFF"></path>
                </g>
            </g>
        </g>
    </g>
</svg>